# xmcd
#
# Track frame offsets:
#	150
#	24047
#	56506
#	80316
#	100967
#	120011
#	144162
#	162585
#	182408
#	209864
#	223867
#	243742
#	264734
#	282318
#
# Disc length: 3947 seconds
#
# Revision: 1
# Processed by: cddbd v1.5.2PL0 Copyright (c) Steve Scherf et al.
# Submitted via: audiograbber 1.83.01
#
DISCID=c60f690e
DTITLE=R. Kelly - The Very Best Of
DYEAR=2011
DGENRE=
TTITLE0=I Believe
TTITLE1=Step In The Name Of Love (Remix)
TTITLE2=I Wish (To The Homies That We Lose) (Remix)
TTITLE3=Your Body's Callin'
TTITLE4=R. Kelly - Usher - Same Girl
TTITLE5=I Believe I Can Fly
TTITLE6=Hair Braider
TTITLE7=Bump N' Grind
TTITLE8=Happy People
TTITLE9=Ignition (Remix)
TTITLE10=R. Kelly - OJ Da Juiceman - Supaman High
TTITLE11=When A Woman's Fed Up
TTITLE12=The World's Greatest (Radio Edit)
TTITLE13=Religious
EXTD=
EXTT0=
EXTT1=
EXTT2=
EXTT3=
EXTT4=
EXTT5=
EXTT6=
EXTT7=
EXTT8=
EXTT9=
EXTT10=
EXTT11=
EXTT12=
EXTT13=
PLAYORDER=
